<svg width="173" height="33" viewBox="0 0 173 33" fill="none" xmlns="http://www.w3.org/2000/svg">
<path d="M14.5979 5.8541C15.1966 4.01148 17.8034 4.01148 18.4021 5.8541L19.7555 10.0193C20.0232 10.8433 20.7911 11.4012 21.6576 11.4012H26.0371C27.9745 11.4012 28.7801 13.8805 27.2126 15.0193L23.6695 17.5935C22.9686 18.1027 22.6753 19.0055 22.943 19.8295L24.2963 23.9947C24.895 25.8373 22.7861 27.3695 21.2187 26.2307L17.6756 23.6565C16.9746 23.1473 16.0254 23.1473 15.3244 23.6565L11.7813 26.2307C10.2139 27.3695 8.10495 25.8373 8.70366 23.9947L10.057 19.8295C10.3247 19.0055 10.0314 18.1027 9.33045 17.5935L5.78736 15.0193C4.21994 13.8805 5.02549 11.4012 6.96293 11.4012H11.3424C12.2089 11.4012 12.9768 10.8433 13.2445 10.0193L14.5979 5.8541Z" fill="#E15141"/>
<path d="M49.5979 5.8541C50.1966 4.01148 52.8034 4.01148 53.4021 5.8541L54.7555 10.0193C55.0232 10.8433 55.7911 11.4012 56.6576 11.4012H61.0371C62.9745 11.4012 63.7801 13.8805 62.2126 15.0193L58.6695 17.5935C57.9686 18.1027 57.6753 19.0055 57.943 19.8295L59.2963 23.9947C59.895 25.8373 57.7861 27.3695 56.2187 26.2307L52.6756 23.6565C51.9746 23.1473 51.0254 23.1473 50.3244 23.6565L46.7813 26.2307C45.2139 27.3695 43.105 25.8373 43.7037 23.9947L45.057 19.8295C45.3247 19.0055 45.0314 18.1027 44.3305 17.5935L40.7874 15.0193C39.2199 13.8805 40.0255 11.4012 41.9629 11.4012H46.3424C47.2089 11.4012 47.9768 10.8433 48.2445 10.0193L49.5979 5.8541Z" fill="#E15141"/>
<path d="M84.5979 5.8541C85.1966 4.01148 87.8034 4.01148 88.4021 5.8541L89.7555 10.0193C90.0232 10.8433 90.7911 11.4012 91.6576 11.4012H96.0371C97.9745 11.4012 98.7801 13.8805 97.2126 15.0193L93.6695 17.5935C92.9686 18.1027 92.6753 19.0055 92.943 19.8295L94.2963 23.9947C94.895 25.8373 92.7861 27.3695 91.2187 26.2307L87.6756 23.6565C86.9746 23.1473 86.0254 23.1473 85.3244 23.6565L81.7813 26.2307C80.2139 27.3695 78.105 25.8373 78.7037 23.9947L80.057 19.8295C80.3247 19.0055 80.0314 18.1027 79.3305 17.5935L75.7874 15.0193C74.2199 13.8805 75.0255 11.4012 76.9629 11.4012H81.3424C82.2089 11.4012 82.9768 10.8433 83.2445 10.0193L84.5979 5.8541Z" fill="#E15141"/>
<path d="M122.927 6.00861L124.28 10.1738C124.615 11.2038 125.575 11.9012 126.658 11.9012H131.037C132.49 11.9012 133.094 13.7606 131.919 14.6147L128.376 17.1889C127.499 17.8256 127.133 18.954 127.467 19.984L128.821 24.1492C129.27 25.5312 127.688 26.6803 126.513 25.8262L122.969 23.252C122.093 22.6154 120.907 22.6154 120.031 23.252L116.487 25.8262C115.312 26.6803 113.73 25.5312 114.179 24.1492L115.533 19.984C115.867 18.954 115.501 17.8256 114.624 17.189L111.081 14.6147C109.906 13.7606 110.51 11.9012 111.963 11.9012H116.342C117.425 11.9012 118.385 11.2038 118.72 10.1738L120.073 6.00861C120.522 4.62665 122.478 4.62665 122.927 6.00861Z" stroke="#E15141"/>
<path d="M157.927 6.00861L159.28 10.1738C159.615 11.2038 160.575 11.9012 161.658 11.9012H166.037C167.49 11.9012 168.094 13.7606 166.919 14.6147L163.376 17.1889C162.499 17.8256 162.133 18.954 162.467 19.984L163.821 24.1492C164.27 25.5312 162.688 26.6803 161.513 25.8262L157.969 23.252C157.093 22.6154 155.907 22.6154 155.031 23.252L151.487 25.8262C150.312 26.6803 148.73 25.5312 149.179 24.1492L150.533 19.984C150.867 18.954 150.501 17.8256 149.624 17.189L146.081 14.6147C144.906 13.7606 145.51 11.9012 146.963 11.9012H151.342C152.425 11.9012 153.385 11.2038 153.72 10.1738L155.073 6.00861C155.522 4.62665 157.478 4.62665 157.927 6.00861Z" stroke="#E15141"/>
</svg>
